<svg version="1.1" id="Layer_1" xmlns="http://www.w3.org/2000/svg" xmlns:xlink="http://www.w3.org/1999/xlink" x="0px" y="0px"
	 width="100%" viewBox="0 0 720 720" enable-background="new 0 0 720 720" xml:space="preserve">
<path fill="#000000" opacity="1.000000" stroke="none" 
	d="
M343.675842,141.704788 
	C343.674774,109.909538 343.670258,78.579636 343.674683,47.249737 
	C343.675629,40.690887 343.690857,40.674000 350.334717,40.665058 
	C359.999969,40.652050 369.670532,40.855103 379.328308,40.587193 
	C383.979492,40.458168 385.375366,42.194538 385.355103,46.708115 
	C385.211304,78.703987 385.325958,110.700989 385.194824,142.696960 
	C385.178101,146.778152 386.241394,148.330856 390.627533,148.960770 
	C427.769287,154.294861 461.658234,167.823517 491.442596,190.808716 
	C534.925232,224.365189 561.762695,268.322784 572.296814,322.211639 
	C573.251099,327.093353 573.888855,332.057800 574.319031,337.014618 
	C574.670288,341.062408 576.208618,342.738770 580.555115,342.716919 
	C612.217529,342.557648 643.881042,342.627441 675.544250,342.626312 
	C682.301575,342.626068 682.318481,342.628723 682.329773,349.548248 
	C682.345032,358.880524 682.352295,368.212921 682.322266,377.545135 
	C682.302734,383.616028 681.916260,384.003113 675.736206,384.004425 
	C644.406372,384.011047 613.076172,384.074127 581.747192,383.906342 
	C576.749939,383.879578 574.776062,384.954590 573.965515,390.599335 
	C566.861877,440.074860 545.631897,482.634766 509.348999,517.146667 
	C477.349670,547.584167 439.334869,566.442200 395.588409,573.392395 
	C385.290375,575.028442 385.276917,574.955750 385.276337,585.580078 
	C385.274750,615.576782 385.282806,645.573486 385.267975,675.570190 
	C385.264771,682.088501 385.018158,682.322876 378.504700,682.340332 
	C368.839233,682.366211 359.166901,682.140930 349.511169,682.450012 
	C344.875977,682.598389 343.565948,681.003296 343.589264,676.466980 
	C343.751160,644.971313 343.612000,613.474060 343.735077,581.978027 
	C343.751923,577.663147 343.018463,575.601074 337.943878,575.007019 
	C297.693726,570.295044 261.139191,556.049500 229.243790,530.849609 
	C187.186234,497.620728 160.959747,454.566498 150.627548,401.914520 
	C149.860687,398.006653 149.058838,394.080231 148.703674,390.123810 
	C148.301270,385.640686 146.382050,383.906647 141.714691,383.932770 
	C110.719032,384.106323 79.722023,384.036163 48.725452,384.051300 
	C40.677742,384.055206 40.929813,384.054169 40.590172,376.175873 
	C40.195713,367.026154 39.945118,357.922943 40.481613,348.750275 
	C40.757164,344.039032 41.874504,342.515198 46.725277,342.544647 
	C78.387253,342.736969 110.051270,342.571960 141.713898,342.701233 
	C145.763367,342.717743 147.429199,341.841034 147.968048,337.363678 
	C151.466080,308.297028 159.843704,280.687988 174.732040,255.371155 
	C207.998642,198.803116 256.709045,163.634109 321.215698,150.713211 
	C327.076508,149.539276 332.995087,148.442200 338.939331,147.969238 
	C343.088074,147.639130 344.041870,145.691193 343.675842,141.704788 
M488.499878,342.629944 
	C503.259705,342.629944 518.019531,342.629944 533.063477,342.629944 
	C532.888062,339.881317 532.926025,337.891388 532.604492,335.961334 
	C531.868042,331.540771 531.240417,327.072479 530.072632,322.757782 
	C510.553284,250.634506 464.312286,206.632080 391.171875,191.036575 
	C385.528717,189.833298 385.282684,190.068405 385.277924,196.022507 
	C385.258392,220.516998 385.288635,245.011536 385.244568,269.505951 
	C385.240814,271.583923 385.876434,273.844360 383.837830,276.186890 
	C371.946350,272.852234 359.604370,272.508148 347.166321,274.264313 
	C344.560211,274.632294 343.656433,273.036987 343.690765,270.615173 
	C343.740356,267.116913 343.678467,263.617188 343.677582,260.118073 
	C343.672028,238.289627 343.644348,216.461121 343.693481,194.632797 
	C343.701355,191.130112 343.402130,189.053329 338.705719,189.784866 
	C328.484711,191.376907 318.293488,193.168564 308.585632,196.643295 
	C242.559357,220.276245 202.712280,266.351471 190.185806,335.612305 
	C188.932663,342.541077 189.076340,342.623383 196.385239,342.628448 
	C220.379822,342.645081 244.374435,342.604858 268.368988,342.629272 
	C270.302979,342.631226 272.377869,342.075043 274.214294,343.548889 
	C274.214294,345.010376 274.408051,346.527924 274.183014,347.980591 
	C272.667664,357.763184 272.965668,367.522949 274.391602,377.275757 
	C275.378052,384.022949 275.399872,384.030334 268.354675,384.027374 
	C244.526794,384.017334 220.698929,383.989929 196.871048,383.989716 
	C190.054962,383.989655 189.343643,384.879395 190.618866,391.617645 
	C192.852600,403.420746 195.846451,415.059692 200.625732,426.066254 
	C226.569870,485.815125 271.527924,521.634521 335.863922,532.792786 
	C343.641632,534.141724 343.669891,534.021851 343.671082,526.285095 
	C343.674866,502.123840 343.702606,477.962494 343.637085,453.801422 
	C343.628174,450.510376 344.025940,448.124451 348.228424,448.821136 
	C357.829254,450.412750 367.428955,450.001709 377.013885,448.600708 
	C379.555817,448.229156 382.014435,446.762604 384.680908,447.888184 
	C385.647156,450.077057 385.263428,452.269897 385.265961,454.401733 
	C385.292816,477.229919 385.298218,500.058167 385.267853,522.886353 
	C385.251465,535.203613 384.937012,533.534180 395.967346,531.172058 
	C467.385437,515.877869 519.847961,461.086334 532.401245,389.208344 
	C533.052368,385.480286 531.984436,383.821350 528.129089,384.044220 
	C526.136963,384.159363 524.131470,384.032532 522.132019,384.032196 
	C499.303802,384.028564 476.475525,384.056793 453.647400,384.007874 
	C447.565674,383.994843 447.382538,383.491882 448.278900,377.736603 
	C448.992218,373.156708 449.661987,368.573212 449.745056,363.879089 
	C449.865997,357.046051 448.526489,350.367767 447.996582,342.631622 
	C461.326752,342.631622 474.413300,342.631622 488.499878,342.629944 
z"/>
<path fill="#000000" opacity="1.000000" stroke="none" 
	d="
M419.325500,355.250977 
	C420.478271,372.174927 416.861237,387.271912 405.609650,399.725250 
	C389.300262,417.776642 368.919586,424.169800 345.515656,417.707458 
	C321.973145,411.206940 308.022614,394.993500 303.715027,371.014069 
	C298.099823,339.755432 319.187347,310.890808 348.231384,304.542114 
	C382.556030,297.039124 414.981781,319.848572 419.325500,355.250977 
z"/>
</svg>